<svg width="206" height="206" viewBox="0 0 206 206" fill="none" xmlns="http://www.w3.org/2000/svg">
<g opacity="0.1" clip-path="url(#clip0_71_5968)">
<path d="M51.5 0L38.625 12.875V38.625H12.875L0 51.5L12.875 64.375H38.625V90.125L51.5 103L64.375 90.125V64.375H90.125L103 51.5L90.125 38.625H64.375V12.875L51.5 0ZM64.375 12.875L90.125 38.625V12.875H64.375ZM90.125 64.375L64.375 90.125H90.125V64.375ZM38.625 90.125L12.875 64.375V90.125H38.625ZM12.875 38.625L38.625 12.875H12.875V38.625ZM154.5 103L141.625 115.875V141.625H115.875L103 154.5L115.875 167.375H141.625V193.125L154.5 206L167.375 193.125V167.375H193.125L206 154.5L193.125 141.625H167.375V115.875L154.5 103ZM167.375 115.875L193.125 141.625V115.875H167.375ZM193.125 167.375L167.375 193.125H193.125V167.375ZM141.625 193.125L115.875 167.375V193.125H141.625ZM115.875 141.625L141.625 115.875H115.875V141.625Z" fill="#F6F9F1"/>
<path d="M103 0V51.5L115.875 38.625V12.875H141.625L154.5 0H103ZM154.5 0L167.375 12.875H193.125V38.625L206 51.5V0H154.5ZM206 51.5L193.125 64.375V90.125H167.375L154.5 103H206V51.5ZM154.5 103L141.625 90.125H115.875V64.375L103 51.5V103H154.5ZM103 103H51.5L64.375 115.875H90.125V141.625L103 154.5V103ZM103 154.5L90.125 167.375V193.125H64.375L51.5 206H103V154.5ZM51.5 206L38.625 193.125H12.875V167.375L0 154.5V206H51.5ZM0 154.5L12.875 141.625V115.875H38.625L51.5 103H0V154.5ZM38.625 115.875L12.875 141.625H38.625V115.875ZM12.875 167.375L38.625 193.125V167.375H12.875ZM64.375 193.125L90.125 167.375H64.375V193.125ZM90.125 141.625L64.375 115.875V141.625H90.125ZM115.875 64.375L141.625 90.125V64.375H115.875ZM167.375 90.125L193.125 64.375H167.375V90.125ZM193.125 38.625L167.375 12.875V38.625H193.125ZM141.625 12.875L115.875 38.625H141.625V12.875Z" fill="#F6F9F1"/>
</g>
<defs>
<clipPath id="clip0_71_5968">
<rect width="206" height="206" fill="white"/>
</clipPath>
</defs>
</svg>
