<svg width="160" height="49" viewBox="0 0 160 49" fill="none" xmlns="http://www.w3.org/2000/svg">
<path d="M13.7605 0.898449L13.8988 1.9215C12.8296 2.2533 11.9725 2.68648 11.3273 3.22105C10.7006 3.73718 10.3135 4.2994 10.166 4.9077L11.6315 6.59435C11.6315 7.49758 11.3642 8.24413 10.8296 8.834C10.3135 9.40543 9.64987 9.69115 8.8388 9.69115C8.19363 9.69115 7.66828 9.47917 7.26275 9.0552C6.87565 8.6128 6.6821 8.0598 6.6821 7.3962C6.6821 6.27177 6.96782 5.25793 7.53925 4.3547C8.12912 3.45147 8.9494 2.6957 10.0001 2.0874C11.0692 1.4791 12.3227 1.08278 13.7605 0.898449ZM7.7328 0.898449L7.87105 1.9215C6.80192 2.2533 5.94477 2.68648 5.2996 3.22105C4.67287 3.73718 4.28577 4.2994 4.1383 4.9077L5.60375 6.59435C5.60375 7.49758 5.33647 8.24413 4.8019 8.834C4.28577 9.40543 3.62217 9.69115 2.8111 9.69115C2.16593 9.69115 1.64058 9.47917 1.23505 9.0552C0.84795 8.6128 0.6544 8.0598 0.6544 7.3962C0.6544 6.27177 0.940117 5.25793 1.51155 4.3547C2.10142 3.45147 2.9217 2.6957 3.9724 2.0874C5.04153 1.4791 6.295 1.08278 7.7328 0.898449ZM21.1335 21.4424C19.3455 21.4424 17.7971 21.1106 16.4883 20.447C15.1796 19.765 14.1657 18.7972 13.4468 17.5438C12.7464 16.2903 12.3961 14.7972 12.3961 13.0645C12.3961 11.4423 12.6911 9.93078 13.2809 8.52985C13.8892 7.12892 14.7187 5.9031 15.7694 4.8524C16.8386 3.8017 18.0736 2.98142 19.4745 2.39155C20.8755 1.78325 22.3962 1.4791 24.0368 1.4791C25.2718 1.4791 26.4976 1.65422 27.7142 2.00445C28.9308 2.33625 29.9723 2.8063 30.8387 3.4146L28.2949 7.5621H27.6313L24.258 2.6957H28.1843V5.54365C27.7603 4.73258 27.2718 4.1335 26.7188 3.7464C26.1843 3.3593 25.5668 3.16575 24.8663 3.16575C23.8525 3.16575 22.9124 3.4146 22.046 3.9123C21.1796 4.41 20.4146 5.11047 19.751 6.0137C19.1059 6.91693 18.599 7.95842 18.2303 9.13815C17.8616 10.3179 17.6773 11.599 17.6773 12.9815C17.6773 14.1797 17.8893 15.258 18.3132 16.2165C18.7556 17.1566 19.3455 17.9032 20.0828 18.4562C20.8386 19.0092 21.6773 19.2857 22.599 19.2857C24.0552 19.2857 25.2626 18.7419 26.2211 17.6543L26.3041 19.7834H23.7603L25.3916 12.7326L26.47 15.1382L23.2902 12.235L23.4008 11.6543H31.9447L31.8064 12.2902L28.4331 15.1382L30.1474 12.7326L28.5161 19.6175C27.4285 20.2074 26.2672 20.659 25.0322 20.9723C23.7972 21.2857 22.4976 21.4424 21.1335 21.4424ZM41.4453 21.4424C39.8047 21.4424 38.3853 21.1383 37.1872 20.5299C36.0074 19.9216 35.095 19.0553 34.4498 17.9308C33.8231 16.788 33.5097 15.4423 33.5097 13.894C33.5097 12.0875 33.7862 10.4285 34.3392 8.91695C34.9107 7.40542 35.7033 6.09665 36.7171 4.99065C37.731 3.86622 38.9291 2.99985 40.3116 2.39155C41.7126 1.78325 43.2425 1.4791 44.9015 1.4791C46.5421 1.4791 47.9522 1.78325 49.132 2.39155C50.3301 2.99985 51.2426 3.86622 51.8693 4.99065C52.5145 6.11508 52.8371 7.46072 52.8371 9.02755C52.8371 10.834 52.5514 12.493 51.9799 14.0045C51.4269 15.5161 50.6435 16.8341 49.6297 17.9585C48.6158 19.0645 47.4085 19.9216 46.0075 20.5299C44.625 21.1383 43.1043 21.4424 41.4453 21.4424ZM41.7494 19.7557C42.5052 19.7557 43.1964 19.5069 43.8232 19.0092C44.4683 18.4931 45.0306 17.8202 45.5098 16.9907C46.0075 16.1612 46.4223 15.2396 46.7541 14.2257C47.1043 13.1935 47.3624 12.152 47.5283 11.1013C47.6942 10.0322 47.7771 9.03677 47.7771 8.1151C47.7771 6.54827 47.4914 5.33167 46.92 4.4653C46.367 3.59893 45.5836 3.16575 44.5697 3.16575C43.8324 3.16575 43.1411 3.42382 42.496 3.93995C41.8692 4.43765 41.307 5.10125 40.8093 5.93075C40.3301 6.76025 39.9153 7.69113 39.5651 8.7234C39.2333 9.73723 38.9752 10.7695 38.7909 11.8202C38.625 12.8709 38.542 13.8663 38.542 14.8064C38.542 16.3732 38.8185 17.5898 39.3715 18.4562C39.943 19.3226 40.7356 19.7557 41.7494 19.7557ZM10.3764 48L10.487 47.364L14.1368 44.5438L12.4501 46.9216L16.3764 29.9998L17.4548 32.4054L14.3303 29.5021L14.4686 28.9215H21.3811L16.9571 48H10.3764ZM15.2428 48V46.3963H18.4502C20.2198 46.3963 21.6207 46 22.653 45.2073C23.7037 44.4147 24.229 43.3364 24.229 41.9723C24.229 40.9953 23.9065 40.2119 23.2613 39.6221C22.6161 39.0322 21.7498 38.7372 20.6622 38.7372H17.0953V37.1335H21.4917C23.9433 37.1335 25.8604 37.5575 27.2429 38.4055C28.6254 39.2534 29.3166 40.4239 29.3166 41.917C29.3166 43.152 28.8742 44.2304 27.9894 45.152C27.1231 46.0553 25.8788 46.7557 24.2567 47.2534C22.653 47.7511 20.7451 48 18.5331 48H15.2428ZM24.0078 38.0736L24.2014 37.1888H25.0585L24.865 38.0736H24.0078ZM18.8649 37.6865V37.1335L22.1829 36.94C23.1046 36.8294 23.8419 36.4146 24.3949 35.6957C24.9479 34.9584 25.2244 34.0552 25.2244 32.986C25.2244 32.2118 24.9848 31.6128 24.5055 31.1888C24.0263 30.7464 23.3535 30.5252 22.4871 30.5252H20.441V28.9215H22.9018C25.2613 28.9215 27.077 29.2809 28.3489 29.9998C29.6208 30.7003 30.2567 31.7234 30.2567 33.069C30.2567 33.9722 29.9065 34.7741 29.206 35.4745C28.524 36.175 27.5747 36.7188 26.3581 37.1059C25.1415 37.493 23.7498 37.6865 22.1829 37.6865H18.8649ZM29.6018 48L29.7124 47.364L33.3622 44.5438L31.6755 46.9216L35.6018 29.9998L36.6802 32.4054L33.5557 29.5021L33.694 28.9215H40.6065L36.1825 48H29.6018ZM35.5465 48L35.823 46.7281L44.0904 46.0921L43.6756 48H35.5465ZM40.1641 48L40.4406 46.8663L45.2793 42.94H45.9706L44.8922 48H40.1641ZM43.1226 39.2073L37.2608 38.7649L37.5097 37.576L43.648 37.1059L43.1226 39.2073ZM43.3162 41.5299L41.2701 38.6819L41.5189 37.6312L44.5051 35.281H45.1687L43.9798 41.5299H43.3162ZM47.2978 31.1059L39.4452 30.1381L39.7217 28.9215H47.8231L47.2978 31.1059ZM46.5512 33.7326L43.565 30.1381L43.8415 28.9215L47.8508 28.7003H48.3208L47.2148 33.7326H46.5512ZM47.5581 48L47.6687 47.364L51.3185 44.5438L49.6318 46.9216L53.5581 29.9998L54.6365 32.4054L51.512 29.5021L51.6503 28.9215H58.5628L54.3876 46.9216L53.2816 44.7926L57.0697 47.4193L56.9314 48H47.5581ZM60.6089 48L57.3462 39.4008L61.7425 38.2119L65.1988 47.364L63.8992 45.0967L66.6919 47.3917L66.5536 48H60.6089ZM53.9452 40.2856V38.6819H56.7379C58.5075 38.6819 59.8347 38.2672 60.7195 37.4377C61.6227 36.6082 62.0743 35.3916 62.0743 33.7879C62.0743 32.7003 61.8071 31.8893 61.2725 31.3547C60.7379 30.8017 59.9545 30.5252 58.9222 30.5252H56.0466V28.9215H59.4476C61.9177 28.9215 63.8163 29.3639 65.1435 30.2487C66.4707 31.1335 67.1343 32.3962 67.1343 34.0368C67.1343 35.198 66.7841 36.2119 66.0836 37.0782C65.3831 37.9262 64.3877 38.5898 63.0974 39.069C61.8255 39.5299 60.314 39.7603 58.5628 39.7603V40.2856H53.9452ZM76.0043 48.4424C74.6218 48.4424 73.2117 48.2396 71.7739 47.8341C70.3361 47.4286 68.9904 46.8571 67.737 46.1198L70.0043 41.9723H70.6679L73.7647 46.6175L71.2485 46.0368L71.1932 44.1843C71.8015 45.0138 72.4743 45.6313 73.2117 46.0368C73.9674 46.4239 74.8615 46.6175 75.8937 46.6175C76.926 46.6175 77.7647 46.2949 78.4099 45.6498C79.0735 45.0046 79.4053 44.1843 79.4053 43.1889C79.4053 42.5622 79.1933 42.046 78.7693 41.6405C78.3638 41.2165 77.8292 40.8479 77.1656 40.5345C76.5205 40.2027 75.8292 39.8801 75.0919 39.5667C74.3545 39.2349 73.6633 38.8478 73.0181 38.4055C72.373 37.963 71.8384 37.41 71.4144 36.7465C71.0089 36.0644 70.8061 35.2073 70.8061 34.175C70.8061 33.0137 71.1195 32.0091 71.7462 31.1611C72.373 30.2948 73.2578 29.6312 74.4006 29.1703C75.5619 28.7095 76.9352 28.4791 78.5205 28.4791C79.35 28.4791 80.2256 28.5713 81.1472 28.7556C82.0873 28.9215 82.9906 29.1703 83.8569 29.5021C84.7233 29.8339 85.4698 30.2118 86.0966 30.6358L83.5804 34.7833H82.9168L80.0965 30.1934L82.9168 30.8017V32.5436C82.327 31.7879 81.6818 31.2257 80.9813 30.857C80.2809 30.4883 79.4974 30.304 78.6311 30.304C77.6541 30.304 76.8707 30.5528 76.2808 31.0505C75.691 31.5482 75.396 32.2211 75.396 33.069C75.396 33.6957 75.5988 34.2211 76.0043 34.645C76.4283 35.069 76.9629 35.4377 77.608 35.751C78.2532 36.0644 78.9444 36.387 79.6818 36.7188C80.4191 37.0322 81.1104 37.41 81.7555 37.8524C82.4191 38.2948 82.9537 38.8571 83.3592 39.5391C83.7832 40.2027 83.9952 41.0506 83.9952 42.0829C83.9952 43.3917 83.6634 44.5253 82.9998 45.4838C82.3546 46.4239 81.4329 47.1521 80.2348 47.6682C79.055 48.1843 77.6449 48.4424 76.0043 48.4424ZM84.7398 48L84.8504 47.364L88.5002 44.5438L86.8135 46.9216L90.7398 29.9998L91.8182 32.4054L88.6937 29.5021L88.832 28.9215H95.7445L91.3205 48H84.7398ZM90.6845 48L90.961 46.7281L99.2284 46.0921L98.8136 48H90.6845ZM95.3021 48L95.5786 46.8663L100.417 42.94H101.109L100.03 48H95.3021ZM98.2606 39.2073L92.3988 38.7649L92.6477 37.576L98.786 37.1059L98.2606 39.2073ZM98.4542 41.5299L96.4081 38.6819L96.6569 37.6312L99.6431 35.281H100.307L99.1178 41.5299H98.4542ZM102.436 31.1059L94.5832 30.1381L94.8597 28.9215H102.961L102.436 31.1059ZM101.689 33.7326L98.703 30.1381L98.9795 28.9215L102.989 28.7003H103.459L102.353 33.7326H101.689ZM102.696 48L102.807 47.364L106.456 44.5438L104.77 46.9216L108.696 29.9998L109.774 32.4054L106.65 29.5021L106.788 28.9215H113.701L109.526 46.9216L108.42 44.7926L112.208 47.4193L112.069 48H102.696ZM115.747 48L112.484 39.4008L116.881 38.2119L120.337 47.364L119.037 45.0967L121.83 47.3917L121.692 48H115.747ZM109.083 40.2856V38.6819H111.876C113.645 38.6819 114.973 38.2672 115.857 37.4377C116.761 36.6082 117.212 35.3916 117.212 33.7879C117.212 32.7003 116.945 31.8893 116.41 31.3547C115.876 30.8017 115.092 30.5252 114.06 30.5252H111.185V28.9215H114.586C117.056 28.9215 118.954 29.3639 120.281 30.2487C121.609 31.1335 122.272 32.3962 122.272 34.0368C122.272 35.198 121.922 36.2119 121.222 37.0782C120.521 37.9262 119.526 38.5898 118.235 39.069C116.963 39.5299 115.452 39.7603 113.701 39.7603V40.2856H109.083ZM122.894 48L123.004 47.364L126.654 44.5438L124.967 46.9216L128.894 29.9998L129.972 32.4054L126.847 29.5021L126.986 28.9215H135.723L135.585 29.5298L131.935 32.3778L133.649 29.9998L129.723 46.9216L128.617 44.5161L131.742 47.4193L131.603 48H122.894ZM135.087 48L135.225 47.3917L137.354 45.1797L137.631 47.3087L132.903 37.8248L136.746 35.2533L142.719 47.3087L141.557 45.3456L143.935 47.3917L143.769 48H135.087ZM128.755 40.894L139.926 29.9445L140.424 32.2118L138.46 29.5298L138.599 28.9215H146.921L146.755 29.5021L142.525 31.9077L145.705 29.8063L134.949 37.1612L130.165 40.894H128.755ZM151.996 37.2441L151.858 36.2487C152.909 35.8985 153.757 35.4653 154.402 34.9492C155.047 34.4331 155.434 33.8616 155.563 33.2349L154.098 31.5482C154.098 30.645 154.356 29.9077 154.872 29.3362C155.406 28.7648 156.088 28.4791 156.918 28.4791C157.545 28.4791 158.052 28.6911 158.439 29.115C158.844 29.539 159.047 30.092 159.047 30.774C159.047 31.88 158.752 32.8939 158.162 33.8155C157.591 34.7188 156.77 35.4745 155.701 36.0828C154.651 36.6727 153.416 37.0598 151.996 37.2441ZM145.969 37.2441L145.83 36.2487C146.881 35.8985 147.729 35.4653 148.374 34.9492C149.019 34.4331 149.406 33.8616 149.535 33.2349L148.07 31.5482C148.07 30.645 148.328 29.9077 148.844 29.3362C149.379 28.7648 150.061 28.4791 150.89 28.4791C151.517 28.4791 152.024 28.6911 152.411 29.115C152.817 29.539 153.019 30.092 153.019 30.774C153.019 31.88 152.724 32.8939 152.134 33.8155C151.563 34.7188 150.743 35.4745 149.674 36.0828C148.623 36.6727 147.388 37.0598 145.969 37.2441Z" fill="url(#paint0_linear_2233_1998)"/>
<defs>
<linearGradient id="paint0_linear_2233_1998" x1="165" y1="25.8301" x2="-2" y2="25.8301" gradientUnits="userSpaceOnUse">
<stop stop-color="#547F10"/>
<stop offset="1" stop-color="#E3F9BF"/>
</linearGradient>
</defs>
</svg>
