<svg width="41" height="42" viewBox="0 0 41 42" fill="none" xmlns="http://www.w3.org/2000/svg">
<path d="M29.0417 4.08667H11.9584C7.24092 4.08667 3.41669 7.9109 3.41669 12.6283V29.7117C3.41669 34.4291 7.24092 38.2533 11.9584 38.2533H29.0417C33.7591 38.2533 37.5834 34.4291 37.5834 29.7117V12.6283C37.5834 7.9109 33.7591 4.08667 29.0417 4.08667Z" stroke="#F6F9F1" stroke-width="2.5" stroke-linecap="round" stroke-linejoin="round"/>
<path d="M27.3334 20.0937C27.5442 21.5155 27.3013 22.9675 26.6394 24.2433C25.9774 25.519 24.93 26.5536 23.6461 27.1998C22.3623 27.846 20.9074 28.0709 19.4883 27.8426C18.0693 27.6142 16.7584 26.9443 15.742 25.9279C14.7257 24.9116 14.0557 23.6007 13.8274 22.1816C13.5991 20.7626 13.824 19.3077 14.4702 18.0238C15.1164 16.74 16.1509 15.6926 17.4267 15.0306C18.7025 14.3686 20.1545 14.1258 21.5763 14.3366C23.0265 14.5517 24.3691 15.2274 25.4058 16.2641C26.4425 17.3008 27.1183 18.6435 27.3334 20.0937Z" stroke="#F6F9F1" stroke-width="2.5" stroke-linecap="round" stroke-linejoin="round"/>
<path d="M29.8958 11.7742H29.9141" stroke="#F6F9F1" stroke-width="2.5" stroke-linecap="round" stroke-linejoin="round"/>
</svg>
