<svg width="32" height="41" viewBox="0 0 32 41" fill="none" xmlns="http://www.w3.org/2000/svg">
<path fill-rule="evenodd" clip-rule="evenodd" d="M25.7221 25.0259C23.7902 27.0438 21.3249 27.9993 18.6008 27.7989C16.5668 27.6474 13.9177 26.2598 13.8904 26.2464L12.5329 25.5314L12.2401 27.0149C11.4387 31.0575 10.4876 34.0065 8.37412 36.1982C8.12667 31.7168 9.20269 27.8412 10.2469 24.077C10.6851 22.5 11.1368 20.8674 11.4819 19.2281L11.5704 18.8027L11.3411 18.4307C10.2583 16.6711 10.5761 13.5528 12.0063 11.8868C12.5443 11.2565 13.1436 10.9446 13.82 10.9446C14.131 10.9446 14.4579 11.0114 14.803 11.1429C16.2627 11.7019 16.1264 13.0806 15.0118 16.68C14.2695 19.0766 13.5022 21.5534 14.6078 23.3665C15.1844 24.3109 16.1855 24.9279 17.5861 25.1996C20.7052 25.7987 23.4611 24.3732 25.1477 21.2706C27.2544 17.3994 27.3179 11.105 24.0558 7.9043C20.4736 4.39404 14.6123 3.74809 9.79518 6.33182C5.50247 8.63488 3.44122 12.7755 4.41283 17.1366C4.84188 19.0566 4.0587 19.9876 3.53431 20.3796C2.28804 19.4196 2.21085 16.8248 2.29257 14.5952C2.54455 7.87981 8.57615 3.61669 14.1288 3.01754C20.9481 2.27805 28.369 5.1736 29.3588 12.134C30.042 16.9429 28.6164 22.0033 25.7221 25.0259ZM31.6061 11.8266C30.5551 4.44083 23.0979 -0.189803 13.8791 0.803561C7.38435 1.50517 0.322131 6.55009 0.0247574 14.515C-0.10236 17.8984 0.165496 21.5156 3.1098 22.6894L3.52522 22.8542L3.94065 22.6983C5.23006 22.215 7.4502 20.3306 6.63069 16.66C5.87022 13.2521 7.46154 10.1227 10.8848 8.28518C14.1061 6.55677 19.1003 6.19594 22.4509 9.48126C24.721 11.7086 25.0456 16.7268 23.1455 20.2215C22.2965 21.7828 20.7234 23.5358 18.0265 23.0146C16.9074 22.7963 16.6418 22.3642 16.5555 22.2216C15.9675 21.2572 16.6122 19.1702 17.1843 17.3282C18.1287 14.2767 19.3068 10.4747 15.6293 9.06697C13.6271 8.30301 11.6771 8.80861 10.2674 10.4524C8.32417 12.7176 7.86562 16.5998 9.17091 19.1769C8.85764 20.609 8.46718 22.0123 8.05631 23.4934C6.79186 28.0484 5.4843 32.7592 6.33558 38.6015L6.60118 40.4168L8.11986 39.3498C11.6339 36.8842 13.1345 33.4675 14.1719 28.8413C15.2956 29.3201 16.9414 29.9082 18.4283 30.0195C21.8788 30.2735 24.9593 29.0751 27.377 26.5516C30.7231 23.0547 32.3825 17.277 31.6061 11.8266Z" fill="#F6F9F1"/>
</svg>
