<svg width="41" height="40" viewBox="0 0 41 40" fill="none" xmlns="http://www.w3.org/2000/svg">
<path d="M39 9.89006H36.9444C34.7638 9.89006 32.6724 9.02401 31.1305 7.48244C29.5885 5.94086 28.7222 3.85004 28.7222 1.66992H20.5V25.3028C20.5 26.1786 20.2761 27.0398 19.8495 27.8046C19.423 28.5695 18.8079 29.2127 18.0628 29.6731C17.3177 30.1335 16.4672 30.3959 15.5921 30.4352C14.717 30.4746 13.8464 30.2897 13.0629 29.898C12.2794 29.5064 11.6091 28.921 11.1156 28.1975C10.622 27.474 10.3217 26.6364 10.243 25.7642C10.1643 24.892 10.31 24.0142 10.6661 23.2141C11.0222 22.414 11.577 21.7182 12.2778 21.1928V12.315C9.83492 12.8942 7.60473 14.1498 5.84281 15.9379C4.08089 17.726 2.85854 19.9742 2.31587 22.4249C1.77319 24.8755 1.93214 27.4295 2.7745 29.7939C3.61685 32.1584 5.10854 34.2378 7.07858 35.7938C9.04862 37.3497 11.4173 38.3192 13.9131 38.5912C16.409 38.8633 18.931 38.4267 21.1901 37.3317C23.4492 36.2367 25.354 34.5275 26.6862 32.4C28.0183 30.2725 28.724 27.8128 28.7222 25.3028V15.8908C31.2205 17.3396 34.0563 18.1051 36.9444 18.1102H39V9.89006Z" stroke="#F6F9F1" stroke-width="2.5" stroke-linecap="round" stroke-linejoin="round"/>
</svg>
