<svg width="40" height="41" viewBox="0 0 40 41" fill="none" xmlns="http://www.w3.org/2000/svg">
<path d="M37.5667 11.37C37.3687 10.579 36.9655 9.85429 36.3978 9.26901C35.83 8.68374 35.1179 8.25864 34.3333 8.03667C31.4667 7.33667 20 7.33667 20 7.33667C20 7.33667 8.53333 7.33667 5.66666 8.10334C4.88208 8.32531 4.16996 8.7504 3.60224 9.33568C3.03452 9.92096 2.63131 10.6457 2.43333 11.4367C1.90869 14.3459 1.65206 17.2972 1.66666 20.2533C1.64796 23.2317 1.90461 26.2055 2.43333 29.1367C2.6516 29.9031 3.06384 30.6002 3.63024 31.1608C4.19663 31.7214 4.89803 32.1264 5.66666 32.3367C8.53333 33.1033 20 33.1033 20 33.1033C20 33.1033 31.4667 33.1033 34.3333 32.3367C35.1179 32.1147 35.83 31.6896 36.3978 31.1043C36.9655 30.5191 37.3687 29.7943 37.5667 29.0033C38.0873 26.116 38.3439 23.1872 38.3333 20.2533C38.352 17.2749 38.0954 14.3012 37.5667 11.37Z" stroke="#F6F9F1" stroke-width="2.5" stroke-linecap="round" stroke-linejoin="round"/>
<path d="M16.25 25.7032L25.8333 20.2532L16.25 14.8032V25.7032Z" stroke="#F6F9F1" stroke-width="2.5" stroke-linecap="round" stroke-linejoin="round"/>
</svg>
